<?xml version="1.0" encoding="UTF-8" standalone="no"?>
<svg
   xmlns:dc="http://purl.org/dc/elements/1.1/"
   xmlns:cc="http://creativecommons.org/ns#"
   xmlns:rdf="http://www.w3.org/1999/02/22-rdf-syntax-ns#"
   xmlns:svg="http://www.w3.org/2000/svg"
   xmlns="http://www.w3.org/2000/svg"
   xmlns:sodipodi="http://sodipodi.sourceforge.net/DTD/sodipodi-0.dtd"
   xmlns:inkscape="http://www.inkscape.org/namespaces/inkscape"
   inkscape:export-ydpi="36"
   inkscape:export-xdpi="36"
   inkscape:export-filename="/home/daniel/src/longtrail/web/icons/gmcmf-logo-192.png"
   sodipodi:docname="gmcmf-logo.svg"
   inkscape:version="1.0 (4035a4fb49, 2020-05-01)"
   id="svg8"
   version="1.1"
   viewBox="0 0 135.46666 135.46667"
   height="512"
   width="512">
  <defs
     id="defs2" />
  <sodipodi:namedview
     inkscape:window-maximized="1"
     inkscape:window-y="698"
     inkscape:window-x="1080"
     inkscape:window-height="1017"
     inkscape:window-width="1920"
     units="px"
     showgrid="false"
     inkscape:document-rotation="0"
     inkscape:current-layer="g895"
     inkscape:document-units="mm"
     inkscape:cy="283.21102"
     inkscape:cx="154.03903"
     inkscape:zoom="1.4"
     inkscape:pageshadow="2"
     inkscape:pageopacity="0.0"
     borderopacity="1.0"
     bordercolor="#666666"
     pagecolor="#ffffff"
     id="base" />
  <metadata
     id="metadata5">
    <rdf:RDF>
      <cc:Work
         rdf:about="">
        <dc:format>image/svg+xml</dc:format>
        <dc:type
           rdf:resource="http://purl.org/dc/dcmitype/StillImage" />
        <dc:title></dc:title>
      </cc:Work>
    </rdf:RDF>
  </metadata>
  <g
     sodipodi:insensitive="true"
     style="display:none;opacity:1"
     inkscape:label="Layer 2"
     id="layer2"
     inkscape:groupmode="layer">
    <rect
       y="13.675465"
       x="13.675465"
       height="108.11574"
       width="108.11574"
       id="rect848"
       style="opacity:0.998;fill:#0098c9;fill-opacity:0.996078;stroke-width:2.70712;paint-order:stroke fill markers" />
    <path
       id="path857"
       d="M 124.89017,73.074137 125.69188,110.88796 10.97097,110.41357 11.923705,73.691024 47.060839,56.932716 75.691076,72.298575 104.27991,62.96561 Z"
       style="fill:#337d37;fill-opacity:0.992157;stroke:none;stroke-width:0.264583px;stroke-linecap:butt;stroke-linejoin:miter;stroke-opacity:1" />
    <path
       sodipodi:nodetypes="czczcc"
       id="path855"
       d="m 73.346637,73.37273 c 0,0 21.212085,-16.558511 28.580463,-16.246613 7.36837,0.311897 30.02401,21.068202 30.02401,21.068202 0,0 -19.00866,-11.103516 -29.89805,-11.438913 C 91.163665,66.420009 75.310953,75.00599 75.310953,75.00599 Z"
       style="fill:#ffffff;fill-opacity:1;stroke:none;stroke-width:0.264583px;stroke-linecap:butt;stroke-linejoin:miter;stroke-opacity:1" />
    <path
       sodipodi:nodetypes="ccczsc"
       id="path852"
       d="m 11.54174,70.382389 c 0,0 23.856482,-19.06602 33.478266,-19.174402 20.949422,0 27.048288,28.222959 55.706284,32.605314 C 73.595732,84.400461 66.006961,62.600792 48.421512,61.3604 30.836063,60.120008 9.5980941,81.877712 10.180706,76.98137 10.840467,71.436655 11.54174,70.382389 11.54174,70.382389 Z"
       style="fill:#ffffff;fill-opacity:0.996078;stroke:none;stroke-width:0.264583px;stroke-linecap:butt;stroke-linejoin:miter;stroke-opacity:1" />
    <path
       sodipodi:nodetypes="czcccc"
       id="path859"
       d="M 9.2604511,103.2814 C 44.666789,116.54873 57.713531,97.427986 89.991807,97.053782 122.27008,96.679578 130.45176,108.23173 130.45176,108.23173 l -1.47929,18.85877 -118.216598,-0.90703 z"
       style="fill:#005482;fill-opacity:0.992157;stroke:none;stroke-width:0.264583px;stroke-linecap:butt;stroke-linejoin:miter;stroke-opacity:1" />
    <rect
       style="opacity:0.998;fill:none;fill-opacity:0.996078;stroke:#ffffff;stroke-width:20;stroke-miterlimit:4;stroke-dasharray:none;stroke-opacity:1;paint-order:stroke fill markers"
       id="rect863"
       width="126.18939"
       height="128.37517"
       x="4.0374751"
       y="5.0080347" />
  </g>
  <g
     inkscape:groupmode="layer"
     id="g895"
     inkscape:label="Layer 2 copy"
     style="display:inline;opacity:1">
    <rect
       style="opacity:0.998;fill:#0098c9;fill-opacity:0.996078;stroke-width:3.36678;paint-order:stroke fill markers"
       id="rect883"
       width="136.79297"
       height="132.16824"
       x="-0.10341658"
       y="-0.77427822" />
    <path
       style="fill:#337d37;fill-opacity:0.992157;stroke:none;stroke-width:0.329055px;stroke-linecap:butt;stroke-linejoin:miter;stroke-opacity:1"
       d="M 140.6105,71.838825 141.62486,118.06509 -3.5252669,117.48516 -2.319823,72.592951 42.137283,52.10642 78.361567,70.890723 114.53347,59.481452 Z"
       id="path885" />
    <path
       style="fill:#ffffff;fill-opacity:1;stroke:none;stroke-width:0.329055px;stroke-linecap:butt;stroke-linejoin:miter;stroke-opacity:1"
       d="m 75.395276,72.203846 c 0,0 26.838494,-20.242285 36.161304,-19.860999 9.32279,0.381284 37.98774,25.755248 37.98774,25.755248 0,0 -24.05063,-13.573717 -37.82837,-13.983731 C 97.938193,63.704352 77.880617,74.200458 77.880617,74.200458 Z"
       id="path887"
       sodipodi:nodetypes="czczcc" />
    <path
       style="fill:#ffffff;fill-opacity:0.996078;stroke:none;stroke-width:0.329055px;stroke-linecap:butt;stroke-linejoin:miter;stroke-opacity:1"
       d="m -2.8031026,68.548243 c 0,0 30.1843106,-23.30764 42.3582306,-23.440134 26.506166,0 34.22273,34.501726 70.482132,39.859024 C 75.710441,85.684918 66.108783,59.035474 43.85887,57.519131 21.608957,56.002789 -5.2622921,82.600933 -4.525145,76.615301 c 0.8347598,-6.778249 1.7220424,-8.067058 1.7220424,-8.067058 z"
       id="path889"
       sodipodi:nodetypes="ccczsc" />
    <path
       style="fill:#005482;fill-opacity:0.992157;stroke:none;stroke-width:0.329055px;stroke-linecap:butt;stroke-linejoin:miter;stroke-opacity:1"
       d="m -5.6894935,108.7663 c 44.7977155,16.21891 61.3050485,-7.15562 102.1449975,-7.61308 40.839936,-0.45745 51.191786,13.66471 51.191786,13.66471 l -1.87167,23.05428 -149.5730388,-1.10882 z"
       id="path891"
       sodipodi:nodetypes="czcccc" />
  </g>
</svg>
